# xmcd
#
# Track frame offsets: 
#        150
#        11666
#        38113
#        51705
#        69917
#        82736
#        99943
#        114409
#        136728
#        152574
#        166754
#        182556
#        211632
#        226898
#
# Disc length: 3371 seconds
#
# Revision: 0
# Processed by: cddbd v1.5.2PL0 Copyright (c) Steve Scherf et al.
# Submitted via: ExactAudioCopy v1.0b4
#
DISCID=9e0d290e
DTITLE=Dan Sowerby - Milestone
DYEAR=2013
DGENRE=Blues-Rock
TTITLE0=Good Feelings
TTITLE1=Moan N Wail
TTITLE2=When I Play The Blues
TTITLE3=Keep Moving
TTITLE4=Find Your Soul
TTITLE5=Milestone
TTITLE6=Working For The Man
TTITLE7=Messin Round
TTITLE8=Start All Over
TTITLE9=Love And Life
TTITLE10=Winter Of 75
TTITLE11=Chasin His Tail
TTITLE12=Bumble Bee
TTITLE13=English Sun
EXTD=
EXTT0=
EXTT1=
EXTT2=
EXTT3=
EXTT4=
EXTT5=
EXTT6=
EXTT7=
EXTT8=
EXTT9=
EXTT10=
EXTT11=
EXTT12=
EXTT13=
PLAYORDER=
